<svg width="71" height="83" viewBox="0 0 71 83" fill="none" xmlns="http://www.w3.org/2000/svg">
<path d="M13.4746 72.7645H0.858927L0.650391 0H45.0711V6.30203H6.96346L7.13547 66.4625H13.4746V72.7645ZM51.3893 19.2389V0H70.1564L70.3597 72.7645H19.7928V66.4625H64.031L63.8642 6.30203H57.7128V19.2389H51.3893Z" fill="#5369B1"/>
<path d="M16.4254 69.4887L10.7275 82.7271C12.4777 81.7954 14.4311 81.308 16.415 81.308C18.3989 81.308 20.3523 81.7954 22.1025 82.7271L16.415 69.4887H16.4254ZM53.0525 41.2492L57.713 46.3397V60.1605H51.3896V48.7679L47.3964 44.4002H32.4348V60.1605H26.1166V25.5461H32.4348V38.0982H47.3964L51.3896 33.7304V25.5461H57.713V36.1587L53.0525 41.2492ZM13.4748 60.1605V12.942H45.0713V31.8533H38.7531V19.2389H19.7931V60.1605H13.4748ZM45.0713 50.7022V60.1605H38.7531V50.7022H45.0713Z" fill="#EA64A5"/>
</svg>
