<svg width="64" height="75" viewBox="0 0 64 75" fill="none" xmlns="http://www.w3.org/2000/svg">
<path d="M11.6264 65.9681H0.189058L0 0H40.2716V5.7134H5.7234L5.87935 60.2547H11.6264V65.9681ZM45.9997 17.4419V0H63.0139L63.1982 65.9681H17.3545V60.2547H57.4607L57.3094 5.7134H51.7326V17.4419H45.9997Z" fill="white"/>
<path d="M14.3017 62.9979L9.13599 74.9998C10.7227 74.1551 12.4936 73.7132 14.2922 73.7132C16.0908 73.7132 17.8617 74.1551 19.4485 74.9998L14.2922 62.9979H14.3017ZM47.5077 37.3961L51.7329 42.0111V54.541H46V44.2125L42.3798 40.2528H28.8157V54.541H23.0876V23.1597H28.8157V34.5394H42.3798L46 30.5796V23.1597H51.7329V32.781L47.5077 37.3961ZM11.6267 54.541V11.7329H40.2719V28.8778H34.5438V17.4416H17.3548V54.541H11.6267ZM40.2719 45.9662V54.541H34.5438V45.9662H40.2719Z" fill="white"/>
</svg>
