<svg width="183" height="116" viewBox="0 0 183 116" fill="none" xmlns="http://www.w3.org/2000/svg">
<g clip-path="url(#clip0_36_26)">
<path d="M175.493 101.753L172.329 93.4333L169.321 101.753H175.493ZM158.144 107.857V92.5546H150.033C150.033 97.5307 150.032 103.308 147.734 107.868L158.144 107.857ZM161.689 107.857H163.456L170.593 89.336H174.117C177.088 96.5913 180.056 103.845 183.021 111.097H179.059L176.614 104.701H168.304L165.979 111.097H164.499V116H160.97V111.097H145.596V116H142.067V107.857H144.152C146.92 102.866 146.529 94.858 146.529 89.336H161.731V107.857H161.689ZM125.489 91.2183L118.191 98.373L126.714 109.812V107.478C127.539 107.991 128.502 108.236 129.472 108.18C130.494 108.18 131.571 107.14 132.704 105.06L125.51 91.2235L125.489 91.2183ZM126.897 111.092H123.029L115.699 100.806L112.842 103.594V111.092H109.308V89.336H112.842V99.2154L122.596 89.336H128.508L134.456 101.394L140.409 89.3568H144.402C143.219 91.6394 136.969 104.373 136.145 105.257C134.847 107.722 132.887 111.497 129.722 111.497C128.806 111.508 127.893 111.387 127.012 111.138L126.897 111.092ZM96.0562 111.092V95.0764L85.5884 111.092H82.1634V89.336H85.5571V105.335L96.025 89.336H99.4604V111.097L96.0562 111.092ZM76.7678 111.092V95.118L71.3984 111.097H68.3644L62.9949 95.1232V111.097H59.5855V89.336H64.4128L69.8553 106.032L75.3238 89.336H80.1511V111.097L76.7678 111.092ZM48.93 88.6236C46.0106 88.6236 44.5093 86.9389 44.2903 84.1519H46.7718C47.0063 85.4778 47.4703 86.1018 48.93 86.1018C50.3896 86.1018 50.8588 85.4622 51.1299 84.1519H53.6061C53.3403 86.9285 51.8545 88.6236 48.9143 88.6236H48.93ZM54.1743 111.092V95.0764L43.7117 111.092H40.2867V89.336H43.6804V105.335L54.1483 89.336H57.5785V111.097L54.1743 111.092ZM35.6366 100.214C35.6366 89.2528 21.9888 89.3412 21.9888 100.214C21.9888 111.086 35.6366 111.133 35.6366 100.214ZM28.8336 88.972C35.5011 88.972 39.2597 94.0105 39.2597 100.214C39.2597 106.5 35.3916 111.45 28.8336 111.45C22.2755 111.45 18.3553 106.516 18.3553 100.214C18.3553 93.9117 22.2651 88.972 28.8336 88.972ZM13.7573 111.092V92.5546H3.53448V111.076H0V89.336H17.2918V111.097L13.7573 111.092Z" fill="#5369B1"/>
<path d="M69.4746 72.7645H56.8589L56.6504 0H101.071V6.30203H62.9635L63.1355 66.4625H69.4746V72.7645ZM107.389 19.2389V0H126.156L126.36 72.7645H75.7928V66.4625H120.031L119.864 6.30203H113.713V19.2389H107.389Z" fill="#5369B1"/>
<path d="M72.4254 69.4887L66.7275 82.7271C68.4777 81.7954 70.4311 81.308 72.415 81.308C74.3989 81.308 76.3523 81.7954 78.1025 82.7271L72.415 69.4887H72.4254ZM109.053 41.2492L113.713 46.3397V60.1605H107.39V48.7679L103.396 44.4002H88.4348V60.1605H82.1166V25.5461H88.4348V38.0982H103.396L107.39 33.7304V25.5461H113.713V36.1587L109.053 41.2492ZM69.4748 60.1605V12.942H101.071V31.8533H94.7531V19.2389H75.7931V60.1605H69.4748ZM101.071 50.7022V60.1605H94.7531V50.7022H101.071Z" fill="#EA64A5"/>
</g>
<defs>
<clipPath id="clip0_36_26">
<rect width="183" height="116" fill="white"/>
</clipPath>
</defs>
</svg>
