<svg width="94" height="87" viewBox="0 0 94 87" fill="none" xmlns="http://www.w3.org/2000/svg">
<path d="M37.8509 30.0726C37.9076 30.3042 38.0218 30.5187 38.1836 30.6971C38.3453 30.8755 38.5496 31.0123 38.7785 31.0956C39.0064 31.1747 39.2511 31.1966 39.49 31.1591C39.7289 31.1217 39.9543 31.0262 40.1453 30.8815L43.9042 27.9551V45.9179H39.1934C39.0034 45.9147 38.8146 45.9488 38.6384 46.0182C38.4622 46.0876 38.3021 46.1909 38.1677 46.3219C38.0333 46.4529 37.9274 46.6089 37.8562 46.7806C37.785 46.9524 37.75 47.1364 37.7534 47.3216V51.8183C37.7492 52.0001 37.7839 52.1807 37.8553 52.3486C37.9268 52.5166 38.0334 52.6681 38.1682 52.7937C38.4386 53.0626 38.8071 53.2166 39.1934 53.222H58.5978C58.9732 53.2218 59.3332 53.0763 59.5985 52.8175C59.7318 52.6858 59.8371 52.5298 59.9083 52.3583C59.9795 52.1868 60.0153 52.0033 60.0135 51.8183V47.3216C60.0153 47.1366 59.9795 46.9531 59.9083 46.7816C59.8371 46.6101 59.7318 46.454 59.5985 46.3223C59.3332 46.0635 58.9732 45.9181 58.5978 45.9179H53.887V18.7953C53.8912 18.6135 53.8564 18.4329 53.785 18.2649C53.7136 18.097 53.607 17.9454 53.4721 17.8198C53.2017 17.5509 52.8333 17.397 52.447 17.3916H46.3694C46.0719 17.3947 45.7824 17.4859 45.5395 17.6533L37.2407 23.2444C37.0068 23.4027 36.8263 23.625 36.7221 23.8834C36.6178 24.1417 36.5944 24.4244 36.655 24.6956L37.8509 30.0726ZM46.4182 18.9618H52.3005V47.5119H58.427V51.7231H39.3399V47.5119H45.5151V24.7194L39.3642 29.4778L38.217 24.4578L46.4182 18.9618Z" fill="#EA64A5"/>
<path d="M0.0186527 71.5181C0.0953727 71.7721 0.252175 71.9962 0.466844 72.1584C0.681513 72.3207 0.943205 72.4129 1.2147 72.4221L13.4187 73.3976L13.7848 84.3656C13.7919 84.6206 13.8738 84.8681 14.0209 85.079C14.168 85.2899 14.3741 85.4551 14.6147 85.5552C14.7849 85.6261 14.9668 85.6663 15.1517 85.6742C15.4969 85.6782 15.8299 85.5501 16.0792 85.3173L38.6567 65.475L39.755 68.3776C39.9289 68.9959 40.2986 69.545 40.8114 69.9465C41.3241 70.3481 41.9538 70.5817 42.6108 70.614C43.1199 70.5966 43.618 70.4652 44.0666 70.2301C44.5153 69.9949 44.9024 69.6623 45.198 69.2579L49.2253 64.4995C49.3866 64.3102 49.5877 64.1569 49.8152 64.0501C50.0426 63.9434 50.291 63.8857 50.5434 63.8809C50.9792 63.8781 51.3992 64.0402 51.715 64.3329L56.4013 68.4728C57.0487 69.1054 57.9255 69.4642 58.8421 69.472C59.4529 69.4687 60.0452 69.2679 60.5263 68.901L76.8553 86.5545C76.9857 86.6921 77.1443 86.8014 77.321 86.8752C77.4976 86.949 77.6882 86.9856 77.8804 86.9827C78.0177 87.0058 78.158 87.0058 78.2953 86.9827C78.5465 86.9035 78.7694 86.7564 78.9379 86.5584C79.1065 86.3604 79.2138 86.1198 79.2473 85.8645L80.5409 75.1106L92.7449 74.0162C92.9999 73.9958 93.2441 73.9073 93.4508 73.7604C93.6575 73.6135 93.8186 73.4139 93.9165 73.1835C94.0021 72.9471 94.0223 72.693 93.9752 72.4466C93.928 72.2002 93.8153 71.9702 93.648 71.7798L73.5602 50.0817V49.939C73.8109 49.551 74.2036 49.2703 74.6586 49.1538L80.8338 47.7501C81.3908 47.6432 81.9093 47.3959 82.3375 47.0327C82.7658 46.6695 83.089 46.2031 83.2746 45.6802C83.4073 45.1266 83.3867 44.5486 83.2152 44.0052C83.0436 43.4618 82.7272 42.9725 82.2982 42.5873L77.9048 38.1383C77.7409 37.9756 77.613 37.7818 77.529 37.569C77.445 37.3562 77.4068 37.1289 77.4167 36.9011C77.4229 36.6713 77.4807 36.4457 77.5861 36.2402C77.6916 36.0346 77.8421 35.8541 78.0269 35.7115L82.9084 31.6669C83.3798 31.3271 83.7471 30.8683 83.9708 30.34C84.1944 29.8118 84.266 29.2341 84.1777 28.6691C84.0338 28.0925 83.73 27.5656 83.2995 27.146C82.869 26.7264 82.3284 26.4302 81.7369 26.2899L75.7325 24.339C75.5066 24.273 75.2981 24.1602 75.1211 24.0082C74.9442 23.8563 74.803 23.6688 74.7074 23.4587C74.6103 23.2494 74.5601 23.0223 74.5601 22.7926C74.5601 22.5628 74.6103 22.3357 74.7074 22.1264L77.1482 16.3926C77.3815 15.9059 77.486 15.37 77.4518 14.8338C77.4177 14.2976 77.2462 13.7782 76.9529 13.3234C76.581 12.8369 76.0695 12.4688 75.483 12.2655C74.8965 12.0623 74.2614 12.033 73.6578 12.1814L67.4094 13.1807C67.1792 13.2176 66.9437 13.2081 66.7175 13.1529C66.4912 13.0977 66.2788 12.998 66.0936 12.8598C65.9084 12.7216 65.7542 12.5479 65.6404 12.3494C65.5267 12.1509 65.4559 11.9318 65.4323 11.7056L64.7489 5.56734C64.7436 4.80683 64.4395 4.07719 63.8992 3.52847C63.359 2.97975 62.6237 2.6536 61.8443 2.61711C61.0525 2.6444 60.2907 2.91976 59.672 3.40228L54.4243 7.11379C54.2376 7.2457 54.0258 7.33996 53.8012 7.39107C53.5767 7.44219 53.344 7.44914 53.1167 7.41147C52.8894 7.37381 52.672 7.29229 52.4775 7.17173C52.2829 7.05116 52.1149 6.89393 51.9834 6.70929L48.4442 1.59408C48.1684 1.13139 47.7783 0.743212 47.3094 0.464828C46.8405 0.186444 46.3078 0.0266419 45.7594 0C45.1377 0.0231847 44.5369 0.225384 44.033 0.581071C43.5291 0.936759 43.1447 1.43005 42.9281 1.99857L40.2187 7.56584C40.1184 7.77968 39.9734 7.97073 39.793 8.1268C39.6125 8.28286 39.4007 8.40052 39.1709 8.47219C38.9412 8.54385 38.6986 8.56795 38.4587 8.54298C38.2189 8.51801 37.987 8.44446 37.7779 8.32712L32.1885 5.37696C31.6019 5.01178 30.9075 4.84642 30.2142 4.90669C29.5208 4.96695 28.8676 5.24948 28.3565 5.71008C28.0404 6.04845 27.801 6.44788 27.6538 6.88239C27.5066 7.3169 27.455 7.77674 27.5022 8.232L27.7463 14.4179C27.7599 14.6454 27.7248 14.8732 27.6432 15.0867C27.5616 15.3003 27.4353 15.495 27.2723 15.6584C27.1093 15.8217 26.9131 15.9503 26.6964 16.0357C26.4796 16.1211 26.2469 16.1616 26.0132 16.1546H19.594C18.9971 16.0787 18.3907 16.1793 17.8533 16.4435C17.3159 16.7077 16.8724 17.1233 16.5803 17.6363C16.2882 18.1493 16.161 18.736 16.2153 19.3203C16.2696 19.9046 16.5028 20.4595 16.8846 20.913L20.0333 26.2661C20.1559 26.4597 20.2346 26.6767 20.2641 26.9024C20.2935 27.1281 20.2731 27.3574 20.2042 27.5747C20.1377 27.792 20.0251 27.9932 19.8737 28.1654C19.7224 28.3375 19.5356 28.4767 19.3254 28.5739L13.6872 31.3813C13.1472 31.6047 12.6787 31.9655 12.3308 32.4259C11.983 32.8864 11.7686 33.4295 11.7101 33.9985C11.7159 34.5685 11.8771 35.1268 12.1774 35.616C12.4777 36.1052 12.9061 36.5077 13.4187 36.7821L18.7885 40.0891C18.9844 40.2113 19.1527 40.3712 19.2831 40.559C19.4134 40.7468 19.503 40.9585 19.5464 41.1813C19.5899 41.404 19.5862 41.6331 19.5356 41.8544C19.485 42.0757 19.3886 42.2846 19.2522 42.4683L15.591 47.5122C15.1907 47.9455 14.9324 48.4856 14.8491 49.0631C14.7659 49.6406 14.8616 50.2291 15.1239 50.7532C15.3862 51.2774 15.8031 51.7132 16.3212 52.0047C16.8393 52.2962 17.435 52.4302 18.0318 52.3895L20.5947 52.6036L0.482412 70.2571C0.301619 70.4116 0.164222 70.6085 0.0830844 70.8291C0.0019472 71.0497 -0.0202618 71.2868 0.0186527 71.5181ZM73.7066 60.9069L73.9507 60.6214C74.1954 60.4694 74.4103 60.2761 74.5853 60.0505C74.8767 59.6247 75.0635 59.1392 75.1312 58.6317C75.1989 58.1242 75.1458 57.6083 74.9759 57.124L74.4145 55.2207L89.4986 71.5181L79.0275 72.4698C78.7104 72.4958 78.4126 72.6289 78.1854 72.846C77.9582 73.0632 77.8158 73.3508 77.7828 73.6594L76.7088 82.5336L61.7467 66.2839L62.9183 60.7166C62.955 60.5222 63.0295 60.3364 63.138 60.1694C63.5295 60.0159 63.9668 60.0159 64.3584 60.1694L70.4847 61.7158C71.0471 61.8718 71.642 61.8791 72.2081 61.7369C72.7743 61.5947 73.2915 61.3083 73.7066 60.9069ZM18.1539 49.6058C17.9378 49.6129 17.7246 49.5548 17.5437 49.4394C17.5891 49.251 17.6719 49.0731 17.7877 48.9159L21.4734 43.7531C21.6435 43.5046 21.7905 43.2419 21.9127 42.968C22.2792 42.1697 22.3815 41.2799 22.2056 40.4223C22.0861 39.8521 21.8493 39.3115 21.5095 38.8331C21.1697 38.3547 20.7339 37.9483 20.2285 37.6386L14.8588 34.3316C14.7311 34.2533 14.616 34.1571 14.517 34.0461V33.8795C14.6522 33.7125 14.8285 33.5816 15.0296 33.4988L17.9342 32.0475L20.6679 30.6914C21.1921 30.4374 21.6586 30.0833 22.0396 29.6501C22.4207 29.2169 22.7085 28.7136 22.8861 28.1699C23.0637 27.6262 23.1274 27.0532 23.0734 26.485C23.0194 25.9169 22.8488 25.3651 22.5718 24.8624V24.6959L19.3987 19.3427C19.2828 19.1904 19.215 19.0086 19.2034 18.8193C19.3962 18.7765 19.5964 18.7765 19.7892 18.8193H21.4246H26.1841C26.777 18.8264 27.365 18.7139 27.9111 18.4887C28.4572 18.2635 28.9496 17.9305 29.3572 17.5108C29.7685 17.0921 30.0918 16.599 30.3091 16.0594C30.3091 16.0594 30.3091 16.0594 30.3091 15.9167C30.4688 15.4083 30.543 14.878 30.5287 14.3465L30.2846 8.18437C30.2846 7.77991 30.2847 7.58963 30.4555 7.56584C30.6516 7.58684 30.8421 7.64327 31.0169 7.73232L35.5812 10.1115L36.582 10.6349H36.8016C37.5951 11.0131 38.4884 11.1452 39.3612 11.0133C40.2341 10.8815 41.0445 10.492 41.6832 9.89738C42.0881 9.53229 42.4192 9.09658 42.6595 8.61268L45.3932 3.0216C45.4315 2.92912 45.4806 2.84125 45.5397 2.75985C45.5397 2.64089 45.6862 2.56953 45.735 2.54574L46.0279 2.85504L48.4687 6.32862L49.6159 7.99407C50.0126 8.58042 50.5527 9.06138 51.1875 9.39364C51.8224 9.72589 52.5321 9.89899 53.2526 9.89738C53.5363 9.93247 53.8233 9.93247 54.1069 9.89738C54.7584 9.77391 55.3746 9.51421 55.9131 9.1361L57.9878 7.61339L60.99 5.42459C61.1343 5.28174 61.3232 5.18964 61.527 5.16284C61.6541 5.33643 61.7223 5.54438 61.7222 5.75764L62.4057 11.8959C62.4983 12.7747 62.8646 13.6049 63.4553 14.2751C63.6756 14.5135 63.921 14.7289 64.1875 14.9175C64.6603 15.2554 65.197 15.4987 65.7667 15.6335C66.3364 15.7682 66.9279 15.7917 67.5069 15.7026L73.7555 14.7034C73.9655 14.6688 74.18 14.6688 74.39 14.7034C74.3901 14.8999 74.3486 15.0942 74.268 15.2743L71.9492 21.032L71.8028 21.4602C71.5596 22.2356 71.5596 23.0641 71.8028 23.8394C71.8571 24.0097 71.9224 24.1766 71.9981 24.339C72.0975 24.5296 72.2117 24.7126 72.3398 24.8862C72.8864 25.6815 73.6829 26.2826 74.6097 26.5992L79.1008 28.0505L80.6141 28.5501C80.7867 28.6086 80.9507 28.6886 81.1022 28.788C81.0678 28.8822 81.0184 28.9706 80.9558 29.0498L80.7117 29.2877L77.7096 31.8334L75.9033 33.3323C75.4511 33.7148 75.0834 34.1829 74.8225 34.7081C74.5616 35.2334 74.413 35.8048 74.3856 36.3878C74.3582 36.9708 74.4526 37.5531 74.6632 38.0994C74.8737 38.6457 75.196 39.1446 75.6104 39.5657L80.0039 44.0148C80.1642 44.1559 80.2823 44.3368 80.3456 44.5382C80.1929 44.6648 80.0069 44.7472 79.8086 44.7761L73.6334 46.1798C73.0491 46.3134 72.4989 46.5616 72.0163 46.9093C71.5338 47.257 71.1289 47.6969 70.8265 48.2021C70.6883 48.4199 70.5737 48.6512 70.4847 48.8921C70.3969 49.1317 70.3316 49.3786 70.2895 49.6297C70.0243 49.963 69.835 50.3476 69.734 50.7578C69.633 51.168 69.6227 51.5945 69.7037 52.0088L71.4855 57.933L65.4323 56.4103C65.1806 56.3875 64.9273 56.3875 64.6757 56.4103H64.3095H63.6261H63.4796L62.8939 56.5531H62.6742L62.3324 56.6958L61.8931 56.9337L61.2829 57.4334C60.3294 58.071 59.665 59.0425 59.4279 60.1456L58.3539 65.356C58.259 65.6177 58.259 65.9033 58.3539 66.165H58.1831L57.9635 65.9984L53.2771 61.8348C52.9274 61.5322 52.5323 61.2835 52.1055 61.0973C51.5365 60.8511 50.9218 60.7215 50.2993 60.7166C49.5472 60.7178 48.8079 60.9062 48.1514 61.2638C47.9328 61.3849 47.7283 61.5285 47.5412 61.6921C47.2926 61.8669 47.0708 62.0751 46.8822 62.3106L42.8792 67.069C42.8792 67.069 42.8792 67.1879 42.7328 67.2117L42.562 67.3546H42.4155C42.2909 67.2173 42.1992 67.0547 42.147 66.8787L40.6825 62.9768C40.8634 62.7943 40.987 62.5653 41.0389 62.3166C41.0908 62.0679 41.0688 61.81 40.9754 61.5731V61.3114C40.7712 60.7514 40.4484 60.2395 40.0278 59.8091C39.6073 59.3787 39.0985 59.0394 38.5346 58.8132C38.1626 58.6523 37.7675 58.5481 37.363 58.504C37.1349 58.4156 36.8975 58.3517 36.6552 58.3136C36.4036 58.289 36.1501 58.289 35.8985 58.3136C35.6068 58.2785 35.3116 58.2785 35.0198 58.3136C34.7246 58.3645 34.4375 58.4525 34.1656 58.5754L28.5517 60.9546C28.5652 60.8998 28.5652 60.8427 28.5517 60.788L29.406 54.6735C29.4871 54.0881 29.4446 53.4928 29.2808 52.924C29.1171 52.3553 28.8357 51.8253 28.454 51.3665C27.735 50.5198 26.7157 49.9677 25.5983 49.82H25.1346C24.913 49.7474 24.6838 49.6995 24.4512 49.6772L22.3032 49.5107L18.1539 49.6058ZM23.7189 53.1984L25.1101 53.0319L25.4763 53.3412C25.6219 53.5203 25.7274 53.7271 25.7863 53.9484C25.8451 54.1696 25.8559 54.4004 25.818 54.6259L24.9881 60.7404C24.8987 61.2139 24.9134 61.7005 25.0312 62.168C25.149 62.6356 25.3672 63.0734 25.6716 63.4527C26.1063 63.917 26.6929 64.2198 27.3313 64.3092C27.796 64.5266 28.3048 64.6394 28.8202 64.6394C29.3356 64.6394 29.8444 64.5266 30.3091 64.3092L36.1182 61.93C36.3383 61.8561 36.5689 61.8159 36.8016 61.811C37.1286 62.0012 37.3785 62.2953 37.5095 62.6438V62.8341L16.2989 81.4631L15.9815 72.1843C15.9703 71.8551 15.8344 71.5415 15.6 71.3043C15.3656 71.067 15.0494 70.9228 14.7124 70.8995L4.53416 70.0906L23.7189 53.1984Z" fill="#5369B1"/>
</svg>
