<svg width="79" height="81" viewBox="0 0 79 81" fill="none" xmlns="http://www.w3.org/2000/svg">
<path d="M72.6634 53.3346C74.1958 49.0863 74.1751 44.6019 73.9473 40.1689C73.6367 34.2274 73.1397 28.2962 72.591 22.3752C72.2389 18.5887 69.4848 16.0233 66.0473 16.0233C64.8294 16.0335 63.64 16.3896 62.6202 17.0495C63.8212 12.8627 62.2268 10.2357 56.5218 8.2142C56.5172 8.20458 56.5148 8.19403 56.5148 8.18338C56.5148 8.17273 56.5172 8.16225 56.5218 8.15263C56.6357 5.07414 55.9005 3.26808 53.1775 1.72883C50.4544 0.189587 47.721 -0.0362138 45.2671 3.09359C45.2671 3.09359 44.6045 3.92481 44.5941 3.89402C44.3933 3.15839 44.022 2.4794 43.5097 1.91109C42.9974 1.34279 42.3583 0.900865 41.6433 0.620559C40.8222 0.212507 39.9163 0 38.9978 0C38.0793 0 37.1735 0.212507 36.3524 0.620559C35.8308 0.753913 35.3244 0.939559 34.8408 1.17466C34.1369 1.4816 33.5155 1.94787 33.0264 2.53597C32.5373 3.12408 32.1941 3.81769 32.0245 4.56106C32.0245 4.56106 31.3412 3.80168 31.3204 3.78116C28.7423 0.702669 26.0607 1.0413 23.3583 2.755C20.656 4.46869 20.0451 6.28501 20.2522 9.30193C20.2589 9.31081 20.2625 9.32158 20.2625 9.33268C20.2625 9.34378 20.2589 9.35461 20.2522 9.3635C15.0752 11.4158 13.3979 13.8786 14.2469 17.501C13.2549 16.9879 12.145 16.7403 11.0269 16.7826C9.32392 16.8748 7.72179 17.6121 6.55199 18.8422C5.3822 20.0722 4.73424 21.7008 4.74209 23.3911C4.43147 29.3224 4.16227 35.2741 4.08979 41.2259C4.02767 45.6589 4.18297 50.1432 5.89135 54.3197L0 64.058L28.4835 81L34.965 70.2971C36.4603 69.8911 37.8999 69.3053 39.2515 68.5526C40.8348 69.4374 42.5356 70.0971 44.3042 70.5126L51.1999 80.9486L79 62.919L72.6634 53.3346ZM53.4881 14.1044C54.8238 11.8981 56.2008 11.3132 57.9506 12.1649C59.7004 13.0166 60.301 14.5148 58.986 16.8237C57.9506 18.7426 56.8117 20.6513 55.7038 22.5599C54.4199 20.6171 53.1395 18.6776 51.8626 16.7416L53.4881 14.1044ZM59.0688 24.4481C59.0067 25.1766 58.9549 25.9873 58.8824 26.9211C58.8824 26.9211 58.7893 27.0032 58.7582 26.9211L57.816 25.6487C58.1528 25.1732 58.5779 24.7656 59.0688 24.4481ZM46.7581 6.37732C47.9592 4.40709 49.4086 3.77088 50.9824 4.40711C53.0532 5.25882 53.633 7.22903 52.2974 9.44554L49.8021 13.5502L45.9401 7.7216C46.2197 7.29061 46.4889 6.8391 46.7581 6.37732ZM35.5034 66.4387C34.8253 66.6682 34.1338 66.8567 33.4326 67.0031L31.5897 70.0816L31.1445 70.8102L26.8579 77.8907L3.31325 63.8836L7.29946 57.3161L7.84825 56.4028L9.27709 54.0529C9.0208 53.5085 8.79607 52.9501 8.60406 52.3803C8.39187 51.7579 8.21556 51.1241 8.076 50.4819C7.799 49.193 7.65333 47.8797 7.64116 46.5619C7.55833 38.917 7.78612 31.2618 7.97249 23.6169C7.91723 22.7523 8.20255 21.9002 8.76837 21.2399C9.33419 20.5796 10.1364 20.1626 11.0062 20.0766C11.695 20.0255 12.3819 20.1981 12.9629 20.5684C13.5439 20.9387 13.9874 21.4866 14.2262 22.129C13.726 22.3849 13.2797 22.7332 12.9113 23.1551C11.753 24.4681 11.0553 26.1177 10.9227 27.8567C10.7902 29.5958 11.23 31.3306 12.1762 32.801C17.7672 41.6055 23.4688 50.3484 29.2808 59.0298C30.3995 60.7296 31.6825 62.3173 33.1116 63.7707C33.9746 64.6464 34.8909 65.4689 35.8554 66.2335L35.5034 66.4387ZM47.928 70.8512L47.4518 70.1432L45.4845 67.1673C44.7839 67.0492 44.0921 66.8847 43.4138 66.6747C42.6183 66.4335 41.8429 66.1316 41.0945 65.7717C37.7273 64.0577 34.8716 61.4998 32.8114 58.3526C29.7674 53.9811 26.9304 49.4762 23.9899 45.0124C20.8837 40.3536 17.7776 35.7051 14.775 31.0155C13.9827 30.0673 13.5569 28.8705 13.5739 27.6395C13.6346 27.1948 13.7967 26.7696 14.0478 26.3962C14.299 26.0229 14.6326 25.711 15.0235 25.4845C15.4976 25.2617 16.0157 25.1462 16.5403 25.1462C17.065 25.1462 17.5831 25.2617 18.0571 25.4845C18.9944 26.0891 19.7662 26.914 20.3039 27.8857C21.7535 30.0202 23.1512 32.1751 24.5801 34.3198C25.2738 35.346 25.9675 36.3721 26.6508 37.3983C27.3342 38.4245 28.8355 41.5645 30.5543 40.3639C32.273 39.1633 30.0573 36.8031 29.3946 35.8077C28.732 34.8123 28.0072 33.7554 27.3239 32.6574C24.1659 27.742 20.9355 22.8781 17.9122 17.8806C16.5351 15.6333 16.9804 14.1762 18.7923 13.2013C20.6042 12.2265 21.8985 12.8114 23.3273 14.9663C27.034 20.5486 30.7303 26.1378 34.4162 31.7339C34.9339 32.524 35.2445 33.1705 36.2178 33.4988C36.37 33.5769 36.5371 33.6227 36.7082 33.6332C36.8793 33.6437 37.0507 33.6187 37.2115 33.5598C37.3723 33.5009 37.5189 33.4094 37.642 33.2911C37.765 33.1728 37.8619 33.0304 37.9262 32.8729C38.114 32.3894 38.1602 31.8632 38.0594 31.3549C37.9587 30.8465 37.7151 30.3768 37.3568 29.9996C33.022 23.4185 28.6802 16.8374 24.3316 10.2563C22.9131 8.09105 23.3687 6.10029 25.4498 5.12543C27.0029 4.42764 28.4628 5.01251 29.7363 6.9417C34.1678 13.6186 38.5854 20.3092 42.9893 27.0135C43.7141 28.1012 44.5734 29.0658 45.8573 28.132C47.1411 27.1982 46.3853 26.1823 45.7434 25.2075C42.3266 20.0561 38.9236 14.9014 35.5345 9.74317C35.0487 9.07233 34.6617 8.33637 34.3852 7.55744C34.2656 7.14011 34.2364 6.70242 34.2994 6.2731C34.3624 5.84379 34.5163 5.4325 34.7509 5.06625C34.9856 4.7 35.2957 4.38703 35.6609 4.14787C36.0261 3.90871 36.4382 3.74877 36.8701 3.67851C38.7338 3.3604 39.6346 4.45839 40.494 5.73083C46.2714 14.5148 52.0489 23.2988 57.9092 32.0314C58.1859 32.4731 58.551 32.854 58.982 33.1505C59.4129 33.447 59.9006 33.6528 60.4149 33.7554C61.9783 33.7554 61.8022 32.1136 61.9058 30.9848C62.1439 28.1833 62.2681 25.3716 62.5581 22.5702C62.7858 20.405 64.1422 19.1634 65.9645 19.1839C66.8388 19.2317 67.6598 19.6152 68.2533 20.2533C68.8468 20.8913 69.166 21.7335 69.1432 22.601C69.6298 30.2356 70.1786 37.8703 70.3753 45.5152C70.4137 46.8312 70.32 48.1478 70.0957 49.4455C69.9818 50.0934 69.8297 50.7341 69.6401 51.3644C69.471 51.9391 69.2705 52.5043 69.0396 53.0575L70.5513 55.3562L71.1414 56.2489L75.3761 62.6625L52.4009 77.5623L47.928 70.8512Z" fill="#5369B1"/>
<path d="M54.347 35.7358C53.0993 35.7544 51.8776 36.092 50.8001 36.7158C49.7226 37.3397 48.8259 38.2286 48.1968 39.2967C47.5623 38.2197 46.6558 37.3251 45.5666 36.7007C44.4773 36.0764 43.2428 35.7438 41.9845 35.7358C40.452 35.7697 38.9683 36.2761 37.7399 37.1847C36.5114 38.0933 35.5992 39.3588 35.1302 40.8051C34.8426 41.6445 34.6957 42.5251 34.6954 43.4116C34.6921 44.2691 34.8285 45.1215 35.0992 45.9359C35.0992 46.0317 35.1302 46.1138 35.1923 46.1822L36.3313 45.6486L35.2027 46.1822L36.3313 45.6589L35.2027 46.1822C35.2006 46.2198 35.2006 46.2575 35.2027 46.2951C35.4903 47.0361 35.892 47.7284 36.3934 48.3474C36.6332 48.6382 36.8926 48.9125 37.17 49.1684L48.2175 60.7127L59.5239 48.84C60.2832 48.0316 60.8618 47.0735 61.222 46.0283C61.5033 45.1911 61.6467 44.3145 61.6465 43.4321C61.7078 41.4523 60.9734 39.5293 59.6046 38.0861C58.2357 36.6429 56.3446 35.7975 54.347 35.7358ZM58.851 45.2074C58.6028 45.9335 58.2003 46.5983 57.6706 47.157L48.2175 57.0903L39.0647 47.4854L39.0026 47.4239C38.804 47.2476 38.6205 47.0554 38.4538 46.8492C38.1114 46.4183 37.8389 45.937 37.6462 45.4228L37.522 45.1253C37.3429 44.5714 37.252 43.9932 37.2527 43.4116C37.2541 42.7966 37.3591 42.1862 37.5634 41.6055C37.8241 40.6652 38.379 39.8311 39.1484 39.2233C39.9178 38.6155 40.8619 38.2653 41.8449 38.2231C42.8279 38.1809 43.7991 38.4489 44.6186 38.9884C45.4382 39.528 46.0638 40.3114 46.4056 41.2259C46.5535 41.5772 46.803 41.8773 47.1227 42.0884C47.4423 42.2994 47.8179 42.4121 48.202 42.4121C48.5861 42.4121 48.9616 42.2994 49.2813 42.0884C49.6009 41.8773 49.8504 41.5772 49.9984 41.2259C50.348 40.3559 50.9473 39.6065 51.7219 39.0703C52.4966 38.5341 53.4128 38.2347 54.3574 38.2089C55.6868 38.2754 56.936 38.8592 57.8336 39.8334C58.7313 40.8075 59.2047 42.0934 59.1512 43.4116C59.1511 44.0224 59.0497 44.6291 58.851 45.2074Z" fill="#EA64A5"/>
</svg>
