<svg width="91" height="86" viewBox="0 0 91 86" fill="none" xmlns="http://www.w3.org/2000/svg">
<path d="M35.8979 86C42.8438 86.0065 49.641 84.0453 55.4576 80.3564C61.2743 76.6674 65.8579 71.4107 68.6479 65.2297C71.4378 59.0486 72.3128 52.2113 71.1659 45.5544C70.019 38.8976 66.8999 32.71 62.1903 27.749L68.9302 21.1997C69.0492 21.3725 69.2054 21.518 69.3882 21.626C69.5709 21.7341 69.7758 21.8022 69.9884 21.8256L84.0662 23.3232H84.2273C84.5989 23.3304 84.9595 23.2008 85.2369 22.9603C85.5142 22.7199 85.6876 22.3863 85.7224 22.0267C85.7677 21.6444 85.6552 21.2603 85.4094 20.9586C85.1636 20.6568 84.8045 20.4622 84.4112 20.4173L71.1845 19.0091L75.072 15.2539H75.256L89.3339 16.7515H89.5179C89.8856 16.7531 90.2405 16.6209 90.5129 16.381C90.7854 16.1411 90.9557 15.8108 90.9902 15.4551C91.0355 15.0728 90.9229 14.6886 90.6771 14.3869C90.4313 14.0851 90.0723 13.8905 89.679 13.8457L77.7174 12.5269L84.9404 5.5081C85.0793 5.37307 85.1895 5.21282 85.2647 5.0364C85.3399 4.85997 85.3787 4.67086 85.3787 4.4799C85.3787 4.28894 85.3399 4.09989 85.2647 3.92347C85.1895 3.74705 85.0793 3.58672 84.9404 3.4517C84.8014 3.31667 84.6364 3.20955 84.4548 3.13648C84.2733 3.0634 84.0787 3.02576 83.8822 3.02576C83.6857 3.02576 83.491 3.0634 83.3095 3.13648C83.1279 3.20955 82.9629 3.31667 82.824 3.4517L75.4171 10.7387L71.5065 0.925837C71.3579 0.565928 71.0694 0.277388 70.7034 0.122607C70.3375 -0.0321744 69.9237 -0.040738 69.5513 0.0988C69.1826 0.238582 68.8859 0.514732 68.7263 0.866695C68.5668 1.21866 68.5575 1.61771 68.7002 1.97641L73.0477 12.8845L69.8504 15.9915L65.9168 5.84344C65.8478 5.66404 65.743 5.49964 65.6084 5.35973C65.4737 5.21983 65.3121 5.10715 65.1325 5.02821C64.953 4.94927 64.7591 4.90563 64.5621 4.89976C64.3651 4.89389 64.1688 4.92593 63.9846 4.99403C63.6156 5.13425 63.3175 5.40913 63.1542 5.75995C62.9908 6.11077 62.9752 6.50973 63.1105 6.87165L67.458 18.048V18.2045L59.89 25.5584C55.6048 21.7448 50.4275 19.0037 44.8064 17.5726C39.1853 16.1416 33.2898 16.0637 27.6308 17.3457C21.9717 18.6277 16.7196 21.2309 12.3292 24.93C7.93887 28.629 4.54271 33.3123 2.43485 38.5742C0.326998 43.8362 -0.429074 49.5181 0.23227 55.128C0.893613 60.7378 2.95243 66.1064 6.23027 70.7688C9.5081 75.4313 13.9062 79.2469 19.0437 81.8853C24.1811 84.5238 29.903 85.9054 35.7138 85.9106L35.8979 86ZM35.8979 19.4338C44.063 19.4249 51.9346 22.392 57.9577 27.749L50.8729 34.6337C46.4195 30.8399 40.6228 28.8772 34.7076 29.1604C28.7924 29.4435 23.2222 31.9503 19.1741 36.1509C15.126 40.3515 12.9172 45.917 13.0144 51.6711C13.1115 57.4253 15.5071 62.9173 19.6948 66.9866C23.8826 71.0559 29.5344 73.3838 35.4559 73.4782C41.3775 73.5726 47.1049 71.4262 51.4277 67.4925C55.7506 63.5589 58.3303 58.1462 58.6217 52.3983C58.913 46.6504 56.8932 41.0175 52.9891 36.6901L60.0741 29.8055C65.1404 35.1991 68.1441 42.1213 68.5815 49.4115C69.0188 56.7017 66.8632 63.9163 62.4762 69.8454C58.0892 75.7745 51.7374 80.0574 44.4864 81.976C37.2354 83.8945 29.5261 83.3319 22.6512 80.3826C15.7764 77.4333 10.1541 72.2766 6.72756 65.7774C3.30099 59.2781 2.27837 51.8316 3.83126 44.6867C5.38416 37.5417 9.4181 31.1329 15.2565 26.5351C21.095 21.9372 28.3829 19.43 35.8979 19.4338ZM34.8167 52.2922C35.1011 52.5666 35.4856 52.7206 35.8864 52.7206C36.2871 52.7206 36.6717 52.5666 36.9561 52.2922L41.5567 47.8217C42.4751 49.2109 42.8337 50.8805 42.5639 52.5107C42.2941 54.1409 41.4148 55.6171 40.0946 56.6565C38.7743 57.6959 37.1058 58.2254 35.4087 58.1436C33.7116 58.0619 32.1053 57.3745 30.8973 56.2133C29.6893 55.0521 28.9647 53.4987 28.8622 51.8505C28.7597 50.2024 29.2866 48.5754 30.3419 47.2813C31.3972 45.9872 32.9066 45.117 34.5812 44.8372C36.2559 44.5575 37.9778 44.8879 39.4173 45.7652L34.8167 50.2358C34.5413 50.5111 34.3872 50.88 34.3872 51.264C34.3872 51.648 34.5413 52.0169 34.8167 52.2922ZM41.6026 43.6418C39.9506 42.4557 37.9519 41.8135 35.8979 41.8088C33.6976 41.7939 31.5565 42.5006 29.8209 43.8147C28.0852 45.1288 26.8565 46.9735 26.3335 49.0503C25.8105 51.1271 26.0237 53.3147 26.9387 55.2591C27.8538 57.2035 29.4171 58.7912 31.3758 59.7652C33.3345 60.7393 35.574 61.0428 37.7322 60.6267C39.8904 60.2105 41.8411 59.0991 43.2687 57.4721C44.6963 55.8451 45.5174 53.7978 45.5991 51.6612C45.6808 49.5246 45.0183 47.4236 43.7188 45.6982L50.8729 38.7465C54.1985 42.51 55.894 47.3791 55.6036 52.3316C55.3132 57.2841 53.0594 61.9345 49.3154 65.3065C45.5714 68.6785 40.6285 70.5098 35.5246 70.4157C30.4207 70.3216 25.5529 68.3094 21.9432 64.8018C18.3335 61.2942 16.2628 56.564 16.1659 51.6044C16.0691 46.6448 17.9536 41.8416 21.4237 38.2035C24.8938 34.5653 29.6797 32.3753 34.7762 32.0931C39.8728 31.8109 44.8836 33.4585 48.7565 36.6901L41.6026 43.6418Z" fill="#5369B1"/>
<path d="M44 46.0002C45.4255 48.053 46.3769 50.7473 46.0568 53.226C45.7367 55.7046 44.5072 57.976 42.6069 59.5992C40.7066 61.2225 38.2711 62.0819 35.7729 62.0107C33.2747 61.9395 30.892 60.9428 29.0872 59.214C27.2824 57.4851 26.1843 55.1475 26.0058 52.6546C25.8274 50.1618 26.5814 47.6915 28.1215 45.7233C29.6616 43.755 31.8781 42.429 34.3407 42.0028C36.8033 41.5765 39.3879 42.6642 41.5 44.0002L39.5681 46.3889C38.1931 45.5191 36.5439 45.1912 34.9406 45.4687C33.3374 45.7462 31.8944 46.6095 30.8917 47.8909C29.889 49.1723 29.3982 50.7805 29.5143 52.4035C29.6305 54.0264 30.3454 55.5483 31.5204 56.6739C32.6954 57.7994 34.2466 58.4483 35.8731 58.4947C37.4995 58.541 39.0851 57.9815 40.3223 56.9247C41.5595 55.8679 42.3599 54.3891 42.5683 52.7755C42.7767 51.1618 42.4281 49.8367 41.5 48.5002L44 46.0002Z" fill="#EA64A5"/>
</svg>
