<svg width="86" height="85" viewBox="0 0 86 85" fill="none" xmlns="http://www.w3.org/2000/svg">
<path d="M75.3052 38.2337C75.4394 38.0634 75.543 37.8719 75.6116 37.6675L85.4864 8.62773C85.6503 8.25446 85.7804 7.86777 85.8752 7.47215C85.8697 7.43769 85.8697 7.40261 85.8752 7.36815C86.0835 6.36 86.0304 5.31674 85.7209 4.33391C85.4115 3.35107 84.8555 2.4601 84.1039 1.7426C83.3523 1.02509 82.4292 0.503985 81.419 0.227028C80.4088 -0.0499294 79.3439 -0.0738817 78.3218 0.157343H78.1215C77.8531 0.23019 77.5894 0.318925 77.332 0.423104L48.5442 9.72554C47.21 9.99144 45.9825 10.6294 45.0091 11.5629L24.0811 32.0745L7.01816 29.4166C6.89704 29.3992 6.77399 29.3992 6.65286 29.4166C5.75541 29.2831 4.83852 29.3589 3.97656 29.638C3.1146 29.9171 2.33183 30.3916 1.69187 31.0229C0.624132 32.0872 0.0179671 33.5154 0.000392999 35.0083C-0.0171811 36.5012 0.555252 37.9429 1.59765 39.031C1.63316 39.0838 1.67252 39.1341 1.71546 39.1813L9.28063 46.5885L7.20674 48.6224C5.81795 49.9872 5.03792 51.8366 5.03792 53.7647C5.03792 55.6928 5.81795 57.5421 7.20674 58.907L9.66951 61.3222L9.4103 61.8075C9.23712 62.1427 9.17574 62.5227 9.23495 62.894C9.29417 63.2652 9.47093 63.6088 9.74021 63.876L20.5459 74.4727C20.8185 74.7368 21.1688 74.9101 21.5474 74.9682C21.9259 75.0262 22.3135 74.966 22.6553 74.7962L23.1502 74.542L25.7072 77.0496C26.3939 77.728 27.2109 78.2663 28.1109 78.6332C29.011 79.0002 29.9763 79.1886 30.951 79.1875C31.9258 79.1886 32.891 79.0002 33.7911 78.6332C34.6912 78.2663 35.5081 77.728 36.1948 77.0496L37.8328 75.4433L45.4804 82.9546L45.6925 83.1164L45.8928 83.3244C46.4315 83.8562 47.0723 84.2781 47.7782 84.5657C48.484 84.8533 49.241 85.001 50.0054 85C50.9173 84.9995 51.8164 84.7893 52.6305 84.3863C53.4445 83.9833 54.1509 83.3988 54.6929 82.6797C55.2349 81.9605 55.5974 81.1267 55.7513 80.2453C55.9052 79.3639 55.8463 78.4593 55.5792 77.6043C55.5913 77.5316 55.5913 77.4575 55.5792 77.3848L52.8806 60.6866L73.9854 39.9902C74.5135 39.4736 74.9585 38.8813 75.3052 38.2337ZM3.62442 37.7715L3.48302 37.5866L3.32983 37.4595C2.71659 36.8246 2.38076 35.9797 2.39397 35.1053C2.40718 34.2309 2.76838 33.3962 3.40053 32.7793C3.80576 32.3791 4.30871 32.0872 4.86149 31.9315C5.41428 31.7757 5.9985 31.7613 6.55857 31.8896C6.71432 31.9183 6.87421 31.9183 7.02995 31.8896L21.9718 34.2007L10.9893 44.9591L3.62442 37.7715ZM53.1163 77.3848C53.0522 77.6155 53.0522 77.8589 53.1163 78.0897C53.3753 78.7001 53.4429 79.3723 53.3107 80.0206C53.1785 80.6689 52.8524 81.2639 52.3739 81.7297C51.7465 82.3423 50.9024 82.6941 50.0172 82.712C49.1299 82.7039 48.2821 82.3506 47.6604 81.7297L47.5308 81.5795L47.4012 81.4062C47.2832 81.2564 47.1294 81.1374 46.9534 81.0595L39.7417 73.9874L50.8656 63.0787L53.1163 77.3848ZM72.1825 36.4079C72.003 36.8366 71.7432 37.2286 71.4166 37.5635L33.6849 74.5652C33.3347 74.9111 32.918 75.1853 32.4587 75.3718C31.9995 75.5583 31.507 75.6534 31.0099 75.6514C30.6347 75.6503 30.2615 75.5958 29.9022 75.4896C29.5466 75.3857 29.209 75.2298 28.9007 75.0273C28.6952 74.8896 28.502 74.735 28.3233 74.5652L24.7881 71.0984C24.6219 70.9331 24.4238 70.8019 24.2053 70.7126C23.9867 70.6233 23.7522 70.5777 23.5155 70.5784C23.2296 70.5763 22.9471 70.6396 22.6906 70.7632L22.1957 71.0175L13.2518 62.2466L13.4992 61.7729C13.6779 61.439 13.7423 61.0576 13.6829 60.6851C13.6234 60.3126 13.4434 59.9687 13.1693 59.7043L9.78732 56.3763C9.07709 55.6786 8.6782 54.7332 8.6782 53.7474C8.6782 52.7616 9.07709 51.816 9.78732 51.1184L47.5779 14.059C48.0983 13.582 48.7496 13.2647 49.4516 13.1461H49.6284L78.5693 3.79741H78.6989L79.0288 3.68185H79.1231C79.5533 3.57513 80.0039 3.57644 80.4333 3.68569C80.8628 3.79495 81.2573 4.00862 81.5803 4.30693C81.9033 4.60524 82.1444 4.97857 82.2813 5.39244C82.4183 5.8063 82.4466 6.24735 82.3637 6.6748V6.7326C82.3204 6.93082 82.2573 7.12436 82.1752 7.31039C82.1395 7.36689 82.1155 7.42968 82.1045 7.49525L72.3357 36.1999L72.1825 36.4079Z" fill="#5369B1"/>
<path d="M38.1748 42.9831C37.5568 42.3761 36.8218 41.8959 36.0125 41.5705C35.2032 41.2452 34.3359 41.0811 33.4613 41.0879C32.5861 41.0772 31.7178 41.2394 30.9079 41.565C30.0981 41.8906 29.3634 42.3729 28.7478 42.9831L20.7231 50.8988C19.4918 52.1134 18.8008 53.7565 18.8008 55.4691C18.8008 57.1817 19.4918 58.8248 20.7231 60.0394L24.541 63.7719C25.1566 64.3821 25.8913 64.8643 26.7011 65.1899C27.5109 65.5155 28.3793 65.6778 29.2545 65.6671C30.1296 65.6772 30.9978 65.5145 31.8075 65.189C32.6173 64.8634 33.352 64.3815 33.968 63.7719L42.0399 55.8562C42.6524 55.2563 43.1383 54.5439 43.4698 53.7596C43.8013 52.9754 43.9719 52.1348 43.9719 51.2859C43.9719 50.437 43.8013 49.5964 43.4698 48.8122C43.1383 48.028 42.6524 47.3155 42.0399 46.7156L38.1748 42.9831ZM39.4121 53.3833L31.3285 61.2644C31.0548 61.533 30.7296 61.7458 30.3716 61.8906C30.0136 62.0354 29.6299 62.1092 29.2427 62.1079C28.4575 62.1085 27.7038 61.8054 27.1452 61.2644L23.339 57.5318C22.7835 56.9858 22.4716 56.2461 22.4716 55.4749C22.4716 54.7036 22.7835 53.9639 23.339 53.4179L31.411 45.4907C31.6868 45.2217 32.0141 45.0087 32.374 44.864C32.7339 44.7192 33.1194 44.6455 33.5084 44.6471C33.8986 44.6451 34.2851 44.7197 34.6454 44.8666C35.0056 45.0135 35.3323 45.2296 35.606 45.5022L39.4121 49.2347C39.6886 49.5043 39.908 49.8248 40.0578 50.1778C40.2075 50.5308 40.2845 50.9094 40.2845 51.2917C40.2845 51.674 40.2075 52.0526 40.0578 52.4056C39.908 52.7586 39.6886 53.079 39.4121 53.3486V53.3833Z" fill="#EA64A5"/>
<path d="M58.0658 23.003C56.5519 22.2326 54.8693 21.836 53.1637 21.8474C50.4632 21.9365 47.9036 23.0512 46.0253 24.9561C44.1471 26.8611 43.0972 29.4072 43.0972 32.0569C43.0972 34.7067 44.1471 37.2529 46.0253 39.1578C47.9036 41.0627 50.4632 42.1774 53.1637 42.2665C55.2213 42.2639 57.232 41.6637 58.9421 40.5418C60.6523 39.4198 61.9853 37.8264 62.7731 35.9624C63.5609 34.0984 63.7681 32.0473 63.3687 30.068C62.9692 28.0886 61.981 26.2696 60.5286 24.8404C59.8037 24.1131 58.9739 23.4941 58.0658 23.003ZM57.9597 36.7197C57.3313 37.3395 56.5839 37.8312 55.7608 38.1664C54.9376 38.5016 54.055 38.6737 53.1637 38.6726C51.3636 38.6726 49.6372 37.9714 48.3643 36.7231C47.0914 35.4748 46.3763 33.7818 46.3763 32.0165C46.3763 30.2512 47.0914 28.5582 48.3643 27.3099C49.6372 26.0616 51.3636 25.3604 53.1637 25.3604C54.5052 25.3617 55.816 25.7528 56.931 26.4843C58.0459 27.2158 58.9148 28.2548 59.428 29.4702C59.9411 30.6856 60.0755 32.0229 59.8142 33.3132C59.5529 34.6035 58.9075 35.7889 57.9597 36.7197Z" fill="#EA64A5"/>
</svg>
