<svg width="83" height="76" viewBox="0 0 83 76" fill="none" xmlns="http://www.w3.org/2000/svg">
<path d="M12.337 63.0761C12.4543 63.7072 12.7955 64.2769 13.2998 64.6838C13.8041 65.0907 14.4388 65.3083 15.0908 65.2978C30.705 63.2928 42.3536 59.0933 50.7252 52.5093C54.8563 49.2625 58.3551 45.306 61.052 40.8316C63.4599 36.8188 65.3648 32.5337 66.7249 28.07L71.7093 28.7745C72.1786 28.8098 72.6493 28.726 73.0764 28.5314C73.5036 28.3368 73.8729 28.0377 74.1491 27.6627C74.4253 27.2877 74.5992 26.8493 74.6542 26.3894C74.7092 25.9294 74.6433 25.4633 74.4631 25.0355L66.2016 7.91172C66.0181 7.5501 65.7547 7.23346 65.4307 6.98498C65.1066 6.73651 64.7303 6.56241 64.3291 6.47564C63.929 6.39808 63.5165 6.40899 63.1213 6.50739C62.726 6.60578 62.3578 6.78927 62.0434 7.04468L47.3105 19.5352C46.9325 19.8681 46.6552 20.2974 46.5094 20.7755C46.3637 21.2536 46.3551 21.762 46.4844 22.2446C46.6159 22.7164 46.8747 23.1444 47.2335 23.4831C47.5923 23.8218 48.0377 24.0586 48.5222 24.1684L52.9282 25.0895C51.7563 31.1252 49.1939 36.8162 45.4379 41.7256C40.1615 48.2355 33.3183 53.3481 25.5277 56.6004C22.9234 57.7221 20.2464 58.6726 17.5142 59.4455L15.146 60.0415H14.54C13.8478 60.1736 13.2333 60.5619 12.8234 61.1265C12.4136 61.6911 12.2395 62.3889 12.337 63.0761ZM22.3885 61.044C23.7654 60.5563 25.3075 59.9874 26.9322 59.2829C35.2007 55.8189 42.4604 50.3803 48.0539 43.4597C52.3888 37.7506 55.2263 31.0782 56.3154 24.033C56.3736 23.6468 56.281 23.2532 56.0562 22.9314C55.8314 22.6097 55.4912 22.3837 55.1039 22.2989L50.0643 21.2422L63.6957 9.69989L71.4889 25.6043L65.9813 24.8458H65.7611C65.4239 24.8455 65.0958 24.9541 64.8273 25.1547C64.5587 25.3553 64.3643 25.6369 64.2739 25.9566C62.9184 30.6112 60.9757 35.0806 58.491 39.2601C55.9788 43.4059 52.7334 47.0763 48.9078 50.0979C41.057 55.8088 31.9223 59.5729 22.2783 61.0711L22.3885 61.044Z" fill="#EA64A5"/>
<path d="M82.9999 73.8866C83.0035 73.6068 82.9507 73.329 82.8444 73.0695C82.7381 72.8099 82.5805 72.5738 82.3807 72.3747C82.1808 72.1756 81.9429 72.0174 81.6804 71.9095C81.418 71.8016 81.1364 71.7461 80.852 71.7461H4.29595V2.11328C4.29595 1.83575 4.24035 1.56102 4.1324 1.30462C4.02446 1.04821 3.86628 0.815231 3.66682 0.618986C3.46737 0.422741 3.23057 0.266948 2.96997 0.160741C2.70936 0.0545344 2.42997 0 2.14789 0C1.86581 0 1.58658 0.0545344 1.32598 0.160741C1.06538 0.266948 0.82858 0.422741 0.629122 0.618986C0.429664 0.815231 0.271319 1.04821 0.163373 1.30462C0.0554275 1.56102 -9.51089e-08 1.83575 0 2.11328V73.8866C0.0022522 74.4462 0.229981 74.9823 0.633324 75.3769C1.03931 75.7665 1.58086 75.9893 2.14789 76H80.852C81.4217 76 81.9679 75.7773 82.3708 75.381C82.7736 74.9847 82.9999 74.4471 82.9999 73.8866Z" fill="#5369B1"/>
</svg>
